# xmcd
# Track frame offsets:
# 150
# 15320
# 32252
# 59937
# 77247
# 90260
# 109277
# 130897
# 139050
# 152115
# 168302
# 182482
# 192392
# 209415
# 223172
#
# Disc length: 3222 seconds
# Revision: 0
# Processed by: cddbd v1.4PL0 Copyright (c) Steve Scherf et al.
# Submitted via: VisiTrax 2.9.5.181 - For more info visit www.synapsa.com
#
DISCID=cf0c940f
DTITLE=Silver King Band - Rock Bottom, Flo Mingo, Barry Cuda - Blues - Shuc
DTITLE=k and Jive
DYEAR=1994
DGENRE=Blues
TTITLE0=Boogie at Midnite
TTITLE1=Monkey Hips and Rice
TTITLE2=Memphis Blues
TTITLE3=Anywhere You Go
TTITLE4=The Tampa Grind
TTITLE5=Suitcase Blues
TTITLE6=Cry On
TTITLE7=I'm The Cat
TTITLE8=Dat Ain't No Lie
TTITLE9=I Ain't
TTITLE10=You Ain't Invited
TTITLE11=The Waitress Song
TTITLE12=Cindy Lea
TTITLE13=Be Baba Leba
TTITLE14=Ice Cream Freezer
EXTD=Dangerzone Discs, 018
EXTT0=
EXTT1=
EXTT2=
EXTT3=
EXTT4=
EXTT5=
EXTT6=
EXTT7=
EXTT8=
EXTT9=
EXTT10=
EXTT11=
EXTT12=
EXTT13=
EXTT14=
PLAYORDER=
